<mxfile host="app.diagrams.net" modified="2021-05-12T12:48:36.085Z" agent="5.0 (Windows NT 10.0; Win64; x64) AppleWebKit/537.36 (KHTML, like Gecko) Chrome/90.0.4430.212 Safari/537.36" etag="jqlMgptl8Nf7_r3hyv81" version="14.6.12" type="github">
  <diagram id="AxwRwTF1TX2HcIYzuqZK" name="Page-1">
    <mxGraphModel dx="1490" dy="703" grid="1" gridSize="20" guides="1" tooltips="1" connect="1" arrows="1" fold="1" page="1" pageScale="1" pageWidth="850" pageHeight="1100" math="0" shadow="0">
      <root>
        <mxCell id="0" />
        <mxCell id="1" parent="0" />
        <mxCell id="YvGFRemYcehDGKziLWDI-10" style="edgeStyle=orthogonalEdgeStyle;rounded=0;orthogonalLoop=1;jettySize=auto;html=1;fontColor=#232F3E;" edge="1" parent="1" source="YvGFRemYcehDGKziLWDI-3" target="YvGFRemYcehDGKziLWDI-4">
          <mxGeometry relative="1" as="geometry">
            <Array as="points">
              <mxPoint x="120" y="319" />
              <mxPoint x="120" y="119" />
            </Array>
          </mxGeometry>
        </mxCell>
        <mxCell id="YvGFRemYcehDGKziLWDI-11" style="edgeStyle=orthogonalEdgeStyle;rounded=0;orthogonalLoop=1;jettySize=auto;html=1;fontColor=#232F3E;" edge="1" parent="1" source="YvGFRemYcehDGKziLWDI-3" target="YvGFRemYcehDGKziLWDI-5">
          <mxGeometry relative="1" as="geometry">
            <Array as="points">
              <mxPoint x="120" y="319" />
              <mxPoint x="120" y="239" />
            </Array>
          </mxGeometry>
        </mxCell>
        <mxCell id="YvGFRemYcehDGKziLWDI-13" style="edgeStyle=orthogonalEdgeStyle;rounded=0;orthogonalLoop=1;jettySize=auto;html=1;fontColor=#232F3E;" edge="1" parent="1" source="YvGFRemYcehDGKziLWDI-3" target="YvGFRemYcehDGKziLWDI-7">
          <mxGeometry relative="1" as="geometry">
            <Array as="points">
              <mxPoint x="120" y="319" />
              <mxPoint x="120" y="479" />
            </Array>
          </mxGeometry>
        </mxCell>
        <mxCell id="YvGFRemYcehDGKziLWDI-14" style="edgeStyle=orthogonalEdgeStyle;rounded=0;orthogonalLoop=1;jettySize=auto;html=1;fontColor=#232F3E;" edge="1" parent="1" source="YvGFRemYcehDGKziLWDI-3" target="YvGFRemYcehDGKziLWDI-8">
          <mxGeometry relative="1" as="geometry">
            <Array as="points">
              <mxPoint x="120" y="319" />
              <mxPoint x="120" y="599" />
            </Array>
          </mxGeometry>
        </mxCell>
        <mxCell id="YvGFRemYcehDGKziLWDI-3" value="" style="outlineConnect=0;fontColor=#232F3E;gradientColor=none;fillColor=#BC1356;strokeColor=none;dashed=0;verticalLabelPosition=bottom;verticalAlign=top;align=center;html=1;fontSize=12;fontStyle=0;aspect=fixed;pointerEvents=1;shape=mxgraph.aws4.template;" vertex="1" parent="1">
          <mxGeometry x="20" y="280" width="65" height="78" as="geometry" />
        </mxCell>
        <mxCell id="YvGFRemYcehDGKziLWDI-4" value="" style="outlineConnect=0;fontColor=#232F3E;gradientColor=none;fillColor=#BC1356;strokeColor=none;dashed=0;verticalLabelPosition=bottom;verticalAlign=top;align=center;html=1;fontSize=12;fontStyle=0;aspect=fixed;pointerEvents=1;shape=mxgraph.aws4.template;" vertex="1" parent="1">
          <mxGeometry x="198" y="80" width="65" height="78" as="geometry" />
        </mxCell>
        <mxCell id="YvGFRemYcehDGKziLWDI-5" value="" style="outlineConnect=0;fontColor=#232F3E;gradientColor=none;fillColor=#BC1356;strokeColor=none;dashed=0;verticalLabelPosition=bottom;verticalAlign=top;align=center;html=1;fontSize=12;fontStyle=0;aspect=fixed;pointerEvents=1;shape=mxgraph.aws4.template;" vertex="1" parent="1">
          <mxGeometry x="198" y="200" width="65" height="78" as="geometry" />
        </mxCell>
        <mxCell id="YvGFRemYcehDGKziLWDI-24" style="edgeStyle=orthogonalEdgeStyle;rounded=0;orthogonalLoop=1;jettySize=auto;html=1;fontColor=#232F3E;" edge="1" parent="1" source="YvGFRemYcehDGKziLWDI-6" target="YvGFRemYcehDGKziLWDI-9">
          <mxGeometry relative="1" as="geometry">
            <Array as="points">
              <mxPoint x="320" y="359" />
              <mxPoint x="320" y="437" />
            </Array>
          </mxGeometry>
        </mxCell>
        <mxCell id="YvGFRemYcehDGKziLWDI-6" value="" style="outlineConnect=0;fontColor=#232F3E;gradientColor=none;fillColor=#BC1356;strokeColor=none;dashed=0;verticalLabelPosition=bottom;verticalAlign=top;align=center;html=1;fontSize=12;fontStyle=0;aspect=fixed;pointerEvents=1;shape=mxgraph.aws4.template;" vertex="1" parent="1">
          <mxGeometry x="198" y="320" width="65" height="78" as="geometry" />
        </mxCell>
        <mxCell id="YvGFRemYcehDGKziLWDI-25" style="edgeStyle=orthogonalEdgeStyle;rounded=0;orthogonalLoop=1;jettySize=auto;html=1;fontColor=#232F3E;" edge="1" parent="1" source="YvGFRemYcehDGKziLWDI-7" target="YvGFRemYcehDGKziLWDI-9">
          <mxGeometry relative="1" as="geometry">
            <Array as="points">
              <mxPoint x="322" y="479" />
              <mxPoint x="322" y="437" />
            </Array>
          </mxGeometry>
        </mxCell>
        <mxCell id="YvGFRemYcehDGKziLWDI-7" value="" style="outlineConnect=0;fontColor=#232F3E;gradientColor=none;fillColor=#BC1356;strokeColor=none;dashed=0;verticalLabelPosition=bottom;verticalAlign=top;align=center;html=1;fontSize=12;fontStyle=0;aspect=fixed;pointerEvents=1;shape=mxgraph.aws4.template;" vertex="1" parent="1">
          <mxGeometry x="198" y="440" width="65" height="78" as="geometry" />
        </mxCell>
        <mxCell id="YvGFRemYcehDGKziLWDI-8" value="" style="outlineConnect=0;fontColor=#232F3E;gradientColor=none;fillColor=#BC1356;strokeColor=none;dashed=0;verticalLabelPosition=bottom;verticalAlign=top;align=center;html=1;fontSize=12;fontStyle=0;aspect=fixed;pointerEvents=1;shape=mxgraph.aws4.template;" vertex="1" parent="1">
          <mxGeometry x="198" y="560" width="65" height="78" as="geometry" />
        </mxCell>
        <mxCell id="YvGFRemYcehDGKziLWDI-9" value="" style="outlineConnect=0;fontColor=#232F3E;gradientColor=none;fillColor=#BC1356;strokeColor=none;dashed=0;verticalLabelPosition=bottom;verticalAlign=top;align=center;html=1;fontSize=12;fontStyle=0;aspect=fixed;pointerEvents=1;shape=mxgraph.aws4.template;" vertex="1" parent="1">
          <mxGeometry x="380" y="398" width="65" height="78" as="geometry" />
        </mxCell>
        <mxCell id="YvGFRemYcehDGKziLWDI-23" style="edgeStyle=orthogonalEdgeStyle;rounded=0;orthogonalLoop=1;jettySize=auto;html=1;fontColor=#232F3E;" edge="1" parent="1" source="YvGFRemYcehDGKziLWDI-16" target="YvGFRemYcehDGKziLWDI-6">
          <mxGeometry relative="1" as="geometry">
            <Array as="points">
              <mxPoint x="120" y="319" />
              <mxPoint x="120" y="359" />
            </Array>
          </mxGeometry>
        </mxCell>
        <mxCell id="YvGFRemYcehDGKziLWDI-16" value="" style="outlineConnect=0;fontColor=#232F3E;gradientColor=none;fillColor=#BC1356;strokeColor=none;dashed=0;verticalLabelPosition=bottom;verticalAlign=top;align=center;html=1;fontSize=12;fontStyle=0;aspect=fixed;pointerEvents=1;shape=mxgraph.aws4.template;" vertex="1" parent="1">
          <mxGeometry x="20" y="280" width="65" height="78" as="geometry" />
        </mxCell>
        <mxCell id="YvGFRemYcehDGKziLWDI-17" style="edgeStyle=orthogonalEdgeStyle;rounded=0;orthogonalLoop=1;jettySize=auto;html=1;fontColor=#232F3E;" edge="1" source="YvGFRemYcehDGKziLWDI-16" target="YvGFRemYcehDGKziLWDI-22" parent="1">
          <mxGeometry relative="1" as="geometry">
            <Array as="points">
              <mxPoint x="120" y="319" />
              <mxPoint x="120" y="239" />
            </Array>
          </mxGeometry>
        </mxCell>
        <mxCell id="YvGFRemYcehDGKziLWDI-18" style="edgeStyle=orthogonalEdgeStyle;rounded=0;orthogonalLoop=1;jettySize=auto;html=1;fontColor=#232F3E;" edge="1" source="YvGFRemYcehDGKziLWDI-16" target="YvGFRemYcehDGKziLWDI-21" parent="1">
          <mxGeometry relative="1" as="geometry">
            <Array as="points">
              <mxPoint x="120" y="319" />
              <mxPoint x="120" y="119" />
            </Array>
          </mxGeometry>
        </mxCell>
        <mxCell id="YvGFRemYcehDGKziLWDI-19" style="edgeStyle=orthogonalEdgeStyle;rounded=0;orthogonalLoop=1;jettySize=auto;html=1;fontColor=#232F3E;" edge="1" source="YvGFRemYcehDGKziLWDI-16" parent="1">
          <mxGeometry relative="1" as="geometry">
            <mxPoint x="198" y="599" as="targetPoint" />
            <Array as="points">
              <mxPoint x="120" y="319" />
              <mxPoint x="120" y="599" />
            </Array>
          </mxGeometry>
        </mxCell>
        <mxCell id="YvGFRemYcehDGKziLWDI-20" style="edgeStyle=orthogonalEdgeStyle;rounded=0;orthogonalLoop=1;jettySize=auto;html=1;fontColor=#232F3E;" edge="1" source="YvGFRemYcehDGKziLWDI-16" parent="1">
          <mxGeometry relative="1" as="geometry">
            <mxPoint x="198" y="479" as="targetPoint" />
            <Array as="points">
              <mxPoint x="120" y="319" />
              <mxPoint x="120" y="479" />
            </Array>
          </mxGeometry>
        </mxCell>
        <mxCell id="YvGFRemYcehDGKziLWDI-21" value="" style="outlineConnect=0;fontColor=#232F3E;gradientColor=none;fillColor=#BC1356;strokeColor=none;dashed=0;verticalLabelPosition=bottom;verticalAlign=top;align=center;html=1;fontSize=12;fontStyle=0;aspect=fixed;pointerEvents=1;shape=mxgraph.aws4.template;" vertex="1" parent="1">
          <mxGeometry x="198" y="80" width="65" height="78" as="geometry" />
        </mxCell>
        <mxCell id="YvGFRemYcehDGKziLWDI-22" value="" style="outlineConnect=0;fontColor=#232F3E;gradientColor=none;fillColor=#BC1356;strokeColor=none;dashed=0;verticalLabelPosition=bottom;verticalAlign=top;align=center;html=1;fontSize=12;fontStyle=0;aspect=fixed;pointerEvents=1;shape=mxgraph.aws4.template;" vertex="1" parent="1">
          <mxGeometry x="198" y="200" width="65" height="78" as="geometry" />
        </mxCell>
        <mxCell id="YvGFRemYcehDGKziLWDI-27" value="&lt;b&gt;&lt;font style=&quot;font-size: 12px&quot;&gt;Master&amp;nbsp;&lt;/font&gt;Template&lt;/b&gt;" style="text;html=1;resizable=0;autosize=1;align=center;verticalAlign=middle;points=[];fillColor=none;strokeColor=none;rounded=0;dashed=0;pointerEvents=1;fontColor=#232F3E;" vertex="1" parent="1">
          <mxGeometry x="1" y="366" width="120" height="20" as="geometry" />
        </mxCell>
      </root>
    </mxGraphModel>
  </diagram>
</mxfile>
